<svg viewBox="0 0 600 800" xmlns="http://www.w3.org/2000/svg">
  <!-- Styles -->
  <style>
    .box {
      fill: #2c3e50;
      stroke: #34495e;
      stroke-width: 2;
      rx: 8;
      ry: 8;
    }
    .input-circle {
      fill: white;
      stroke: #2c3e50;
      stroke-width: 2;
    }
    .arrow {
      stroke: #34495e;
      stroke-width: 2;
      fill: none;
      marker-end: url(#arrowhead);
    }
    .plus {
      font-family: Arial, sans-serif;
      font-size: 24px;
      font-weight: bold;
      text-anchor: middle;
      dominant-baseline: middle;
    }
    .text {
      font-family: Arial, sans-serif;
      fill: white;
      text-anchor: middle;
    }
    .title {
      font-size: 20px;
      font-weight: bold;
    }
    .subtitle {
      font-size: 14px;
    }
    .input-text {
      font-family: Arial, sans-serif;
      fill: #2c3e50;
      font-size: 24px;
      font-weight: bold;
      text-anchor: middle;
      dominant-baseline: middle;
    }
    .output-text {
      font-family: Arial, sans-serif;
      fill: #2c3e50;
      font-size: 24px;
      font-weight: bold;
      text-anchor: middle;
      dominant-baseline: middle;
    }
    .note {
      font-family: Arial, sans-serif;
      fill: #2c3e50;
      font-size: 12px;
      text-anchor: middle;
    }
  </style>
  
  <!-- Arrow marker definition -->
  <defs>
    <marker id="arrowhead" markerWidth="10" markerHeight="7" refX="9" refY="3.5" orient="auto">
      <polygon points="0 0, 10 3.5, 0 7" fill="#34495e" />
    </marker>
  </defs>
  
  <!-- Input variables -->
  <circle cx="120" cy="80" r="30" class="input-circle" />
  <text x="120" y="80" class="input-text">t</text>
  
  <circle cx="220" cy="80" r="30" class="input-circle" />
  <text x="220" y="80" class="input-text">y</text>
  
  <!-- Trend component -->
  <rect x="70" y="150" width="180" height="100" class="box" />
  <text x="160" y="180" class="text title">Trend</text>
  <text x="160" y="210" class="text subtitle">Piecewise linear with</text>
  <text x="160" y="230" class="text subtitle">smooth logistic CPs</text>
  
  <!-- Seasonality component -->
  <rect x="350" y="150" width="180" height="100" class="box" />
  <text x="440" y="180" class="text title">Seasonality</text>
  <text x="440" y="210" class="text subtitle">Fourier series</text>
  <text x="440" y="230" class="text subtitle">representation</text>
  
  <!-- Addition symbol -->
  <circle cx="300" cy="320" r="30" fill="#f39c12" />
  <text x="300" y="325" class="plus" fill="white">+</text>
  <text x="300" y="365" class="note">Additive components</text>
  
  <!-- AR(1) component -->
  <rect x="210" y="420" width="180" height="100" class="box" />
  <text x="300" y="455" class="text title">AR(1)</text>
  <text x="300" y="485" class="text subtitle">Latent error</text>
  
  <!-- Link function -->
  <rect x="210" y="570" width="180" height="100" class="box" />
  <text x="300" y="605" class="text title">Link</text>
  <text x="300" y="635" class="text subtitle">Logit⁻¹</text>
  
  <!-- Beta likelihood box -->
  <rect x="110" y="700" width="180" height="80" class="box" />
  <text x="200" y="735" class="text title">Beta</text>
  <text x="200" y="760" class="text subtitle">likelihood</text>
  
  <!-- Final prediction -->
  <circle cx="400" cy="740" r="30" class="input-circle" />
  <text x="400" y="740" class="output-text">ŷ</text>
  
  <!-- Connection arrows -->
  <!-- Input to components -->
  <path d="M 120 110 L 120 140" class="arrow" />
  <path d="M 220 110 L 400 140" class="arrow" />
  
  <!-- Components to addition -->
  <path d="M 160 250 L 290 300" class="arrow" />
  <path d="M 440 250 L 310 300" class="arrow" />
  
  <!-- Addition to AR(1) -->
  <path d="M 300 350 L 300 410" class="arrow" />
  
  <!-- AR(1) to Link -->
  <path d="M 300 520 L 300 560" class="arrow" />
  
  <!-- Link to Beta and output -->
  <path d="M 280 670 L 200 690" class="arrow" />
  <path d="M 320 670 L 390 710" class="arrow" />
  
  <!-- Gaussian/Student-t note -->
  <text x="300" y="800" class="note" fill="#2c3e50">Alternative: Gaussian/Student-t likelihood with identity link</text>
</svg>
